<svg width="31" height="30" viewBox="0 0 31 30" fill="none" xmlns="http://www.w3.org/2000/svg">
<path d="M15.1628 0C6.87841 0 0.162781 6.71562 0.162781 15C0.162781 23.2844 6.87841 30 15.1628 30C23.4472 30 30.1628 23.2844 30.1628 15C30.1628 6.71562 23.4472 0 15.1628 0ZM11.4909 21.2172H8.4534V11.4422H11.4909V21.2172ZM9.9534 10.2422C8.99403 10.2422 8.37372 9.5625 8.37372 8.72187C8.37372 7.86406 9.01278 7.20469 9.99247 7.20469C10.9722 7.20469 11.5722 7.86406 11.5909 8.72187C11.5909 9.5625 10.9722 10.2422 9.9534 10.2422ZM22.5847 21.2172H19.5472V15.8C19.5472 14.5391 19.1065 13.6828 18.0081 13.6828C17.169 13.6828 16.6706 14.2625 16.4503 14.8203C16.369 15.0188 16.3487 15.3 16.3487 15.5797V21.2156H13.3097V14.5594C13.3097 13.3391 13.2706 12.3187 13.23 11.4406H15.869L16.0081 12.7984H16.069C16.469 12.1609 17.4487 11.2203 19.0878 11.2203C21.0862 11.2203 22.5847 12.5594 22.5847 15.4375V21.2172Z" fill="white"/>
</svg>
