<svg width="31" height="30" viewBox="0 0 31 30" fill="none" xmlns="http://www.w3.org/2000/svg">
<circle cx="15.4768" cy="14.8953" r="14.8953" fill="white"/>
<path fill-rule="evenodd" clip-rule="evenodd" d="M22.6983 14.9755C22.6085 11.3912 19.6528 8.51172 16.0195 8.51172C12.4297 8.51172 9.50126 11.3231 9.34341 14.8531C9.34068 14.951 9.33796 15.0463 9.33796 15.1443C9.33796 16.3989 9.68905 17.5692 10.296 18.5708L9.09302 22.1279L12.7944 20.9522C13.7524 21.4774 14.8519 21.7795 16.0222 21.7795C19.7127 21.7795 22.7037 18.8103 22.7037 15.147C22.701 15.0871 22.701 15.0327 22.6983 14.9755ZM16.0195 20.7181C14.8791 20.7181 13.8177 20.3806 12.9278 19.7955L10.7695 20.484L11.469 18.4129C10.7967 17.493 10.3994 16.3635 10.3994 15.1443C10.3994 14.9619 10.4076 14.7823 10.4266 14.6027C10.7015 11.7804 13.1047 9.57042 16.0168 9.57042C18.967 9.57042 21.3919 11.8375 21.6178 14.7115C21.6314 14.8558 21.6369 15 21.6369 15.147C21.6369 18.2197 19.1167 20.7181 16.0195 20.7181Z" fill="#1A2044"/>
<path fill-rule="evenodd" clip-rule="evenodd" d="M18.82 16.2874C18.6539 16.2057 17.8511 15.8111 17.7014 15.7594C17.5517 15.7022 17.4428 15.6778 17.3312 15.841C17.2224 16.0043 16.9067 16.369 16.8114 16.4752C16.7134 16.584 16.6209 16.5977 16.4549 16.516C16.2916 16.4344 15.7636 16.2656 15.1376 15.7077C14.6532 15.2804 14.3212 14.747 14.2286 14.5837C14.1334 14.4204 14.2205 14.3333 14.2994 14.2516C14.3756 14.1754 14.4627 14.0611 14.547 13.9686C14.5688 13.9414 14.5879 13.9142 14.6069 13.8897C14.645 13.8298 14.6722 13.7726 14.7103 13.6964C14.7675 13.5876 14.7376 13.4923 14.6967 13.4107C14.6559 13.329 14.3266 12.5289 14.1905 12.2023C14.0572 11.8757 13.9184 11.9328 13.8204 11.9328C13.7251 11.9328 13.6163 11.9165 13.5074 11.9165C13.3985 11.9165 13.2189 11.9573 13.0692 12.1206C12.9195 12.2839 12.4977 12.6786 12.4977 13.4787C12.4977 13.6665 12.5331 13.8543 12.5821 14.0339C12.7481 14.6054 13.1046 15.079 13.1672 15.1606C13.2488 15.2668 14.2994 16.9623 15.965 17.6155C17.6333 18.2633 17.6333 18.0483 17.9327 18.0183C18.2321 17.9938 18.9016 17.6264 19.0377 17.2454C19.1765 16.8671 19.1765 16.5405 19.1357 16.4725C19.0921 16.4099 18.9833 16.369 18.82 16.2874Z" fill="#1A2044"/>
</svg>
