<svg width="31" height="30" viewBox="0 0 31 30" fill="none" xmlns="http://www.w3.org/2000/svg">
<circle cx="15.2674" cy="14.8953" r="14.8953" fill="white"/>
<path d="M22.3289 9.36328H8.64101C7.83456 9.36328 7.1814 10.0205 7.1814 10.8229V19.5806C7.1814 20.3877 7.83936 21.0402 8.64101 21.0402H22.3289C23.1286 21.0402 23.7885 20.3905 23.7885 19.5806V10.8229C23.7885 10.0219 23.138 9.36328 22.3289 9.36328ZM22.1245 10.3364C21.8263 10.633 16.6943 15.738 16.5171 15.9142C16.2414 16.1899 15.8748 16.3417 15.485 16.3417C15.0951 16.3417 14.7286 16.1899 14.4519 15.9133C14.3328 15.7948 9.25739 10.7461 8.84542 10.3364H22.1245ZM8.15447 19.3825V11.0216L12.3594 15.2043L8.15447 19.3825ZM8.84603 20.0671L13.0493 15.8906L13.7648 16.6023C14.2243 17.0618 14.8352 17.3148 15.485 17.3148C16.1347 17.3148 16.7456 17.0618 17.2042 16.6032L17.9206 15.8906L22.1239 20.0671H8.84603ZM22.8155 19.3825L18.6105 15.2043L22.8155 11.0216V19.3825Z" fill="#1A2044"/>
</svg>
