<svg width="30" height="30" viewBox="0 0 30 30" fill="none" xmlns="http://www.w3.org/2000/svg">
<circle cx="14.8953" cy="14.8953" r="14.8953" fill="white"/>
<path d="M17.6531 8.51172H11.9945C10.071 8.51172 8.51166 10.0834 8.51166 12.0221V17.7253C8.51166 19.664 10.071 21.2356 11.9945 21.2356H17.6531C19.5766 21.2356 21.136 19.664 21.136 17.7253V12.0221C21.136 10.0834 19.5766 8.51172 17.6531 8.51172ZM20.0155 17.7253C20.0155 19.0428 18.951 20.1063 17.6531 20.1063H11.9945C10.6873 20.1063 9.63216 19.0334 9.63216 17.7253V12.0221C9.63216 10.7139 10.6966 9.64106 11.9945 9.64106H17.6531C18.9603 9.64106 20.0155 10.7139 20.0155 12.0221V17.7253Z" fill="#1A2044"/>
<path d="M14.8238 11.5991C13.031 11.5991 11.5651 13.0673 11.5651 14.8742C11.5651 16.6812 13.0217 18.1587 14.8238 18.1587C16.6166 18.1587 18.0826 16.6906 18.0826 14.8742C18.0826 13.0673 16.6166 11.5991 14.8238 11.5991ZM14.8238 17.0294C13.6473 17.0294 12.6856 16.0694 12.6856 14.8836C12.6949 13.6884 13.6473 12.7285 14.8238 12.7285C16.0004 12.7285 16.9621 13.6884 16.9621 14.8742C16.9621 16.06 16.0004 17.0294 14.8238 17.0294Z" fill="#1A2044"/>
<path d="M18.2132 10.6396C17.9984 10.6396 17.7837 10.7243 17.6343 10.8843C17.4849 11.0349 17.3915 11.2514 17.3915 11.4678C17.3915 11.6843 17.4755 11.9008 17.6343 12.0513C17.7837 12.2019 17.9984 12.296 18.2132 12.296C18.428 12.296 18.6427 12.2113 18.7921 12.0513C18.9415 11.9008 19.0349 11.6843 19.0349 11.4678C19.0349 11.2514 18.9509 11.0349 18.7921 10.8843C18.6427 10.7243 18.4373 10.6396 18.2132 10.6396Z" fill="#1A2044"/>
</svg>
